<svg xmlns="http://www.w3.org/2000/svg" xmlns:xlink="http://www.w3.org/1999/xlink" width="479.145" height="354.028" viewBox="0 0 479.145 354.028">
  <defs>
    <clipPath id="clip-path">
      <rect id="Rectangle_4" data-name="Rectangle 4" width="459.33" height="156.731" fill="#121212"/>
    </clipPath>
  </defs>
  <g id="sunglasses" transform="translate(73.581) rotate(28)" opacity="0.405">
    <g id="Group_3649" data-name="Group 3649" clip-path="url(#clip-path)">
      <path id="Path_31" data-name="Path 31" d="M132.808,24c-5.051-1.653-10.213-2.949-15.374-4.267-2.584-.64-5.169-1.351-7.731-2.085s-5.118-1.471-7.684-2.112c-1.283-.321-2.567-.619-3.853-.883a34.473,34.473,0,0,0-3.826-.574c-2.58-.239-5.211-.254-7.9-.335-1.344-.045-2.7-.105-4.075-.224a40.488,40.488,0,0,1-4.133-.574c-2.721-.541-5.336-1.3-7.88-2.039a75.046,75.046,0,0,0-7.5-1.881c-1.205-.214-2.525-.383-3.81-.533s-2.6-.289-3.906-.408L47.2,7.372l-2.007-.214L43.206,6.93c-1.269-.14-2.554-.253-3.851-.327s-2.609-.124-3.93-.17L31.432,6.3c-1.341-.053-2.69-.111-4.045-.212-.68-.048-1.349-.1-2.043-.177-.348-.041-.7-.074-1.043-.123l-1.032-.152c-2.734-.45-5.34-1.136-7.907-1.743A42.085,42.085,0,0,0,7.709,2.649l-.077,0a.966.966,0,0,1-.4-.112A2.447,2.447,0,0,0,5.953,2.2a1.575,1.575,0,0,0-1.06.482A3.555,3.555,0,0,0,4.1,3.958c-.043.132-.1.257-.135.395l-.112.412c-.055.287-.113.557-.164.895-.421,2.579-.884,5.134-1.289,7.686a74.088,74.088,0,0,0-.851,7.663c-.059,1.278-.085,2.556-.034,3.829q.078,1.937.191,3.874A85.625,85.625,0,0,0,3.845,43.978a73.958,73.958,0,0,0,2.266,7.34C6.986,53.726,8,56.08,9.1,58.4a87.706,87.706,0,0,0,7.69,13.217c.737,1.031,1.5,2.042,2.292,3.023s1.6,1.952,2.445,2.882c.207.237.424.464.637.695s.428.463.642.675.425.437.646.648l.668.629c.906.825,1.863,1.6,2.846,2.358a74.7,74.7,0,0,0,6.283,4.191c1.091.663,2.2,1.316,3.316,1.973l1.679.987c.575.346,1.154.692,1.714,1.046,2.255,1.412,4.388,2.872,6.531,4.152a28.762,28.762,0,0,0,6.486,3.012,22.029,22.029,0,0,0,3.406.674,29.934,29.934,0,0,0,3.594.207c2.439.018,4.951-.188,7.525-.414,1.286-.116,2.6-.228,3.924-.318l1.935-.13q.954-.067,1.9-.148c2.525-.225,5.022-.5,7.459-.947a47.192,47.192,0,0,0,7.118-1.846,68.637,68.637,0,0,0,6.916-2.856,64.5,64.5,0,0,0,6.555-3.62c1.049-.668,2.113-1.362,3.1-2.069s1.952-1.491,2.9-2.287,1.865-1.638,2.758-2.514,1.778-1.77,2.639-2.7,1.706-1.874,2.541-2.838c.417-.48.832-.972,1.241-1.458s.8-.966,1.191-1.458a61.4,61.4,0,0,0,4.309-6.226c1.331-2.169,2.523-4.408,3.665-6.73s2.23-4.64,3.168-7.021q.707-1.784,1.269-3.617a35.284,35.284,0,0,0,.936-3.7,37.223,37.223,0,0,0,.518-7.648c-.062-2.581-.255-5.171-.391-7.77v-.006a.3.3,0,0,1,.064-.2A7.624,7.624,0,0,0,134.2,28.6a5.55,5.55,0,0,0,.481-1.83,2.717,2.717,0,0,0-.4-1.741A2.8,2.8,0,0,0,132.808,24m.155-.472a3.3,3.3,0,0,1,1.74,1.215,3.244,3.244,0,0,1,.513,2.066,6.311,6.311,0,0,1-.5,2.019,8.212,8.212,0,0,1-1.025,1.793l.064-.207c.184,2.582.488,5.163.651,7.77a41.769,41.769,0,0,1-.1,7.888,65.119,65.119,0,0,1-4.354,15.161c-.943,2.431-1.984,4.886-3.172,7.258a64.116,64.116,0,0,1-4.022,6.922c-.376.556-.755,1.11-1.151,1.653s-.781,1.064-1.181,1.592c-.8,1.055-1.609,2.1-2.463,3.128a60.162,60.162,0,0,1-5.519,5.885c-.994.926-2.04,1.806-3.121,2.649-1.1.841-2.182,1.611-3.31,2.356a69.553,69.553,0,0,1-6.987,4.058,67.332,67.332,0,0,1-7.426,3.2c-1.283.464-2.61.883-3.931,1.238s-2.66.636-3.994.883a75.926,75.926,0,0,1-7.986,1.01q-.993.076-1.981.139l-1.951.117c-1.263.076-2.541.178-3.842.27-2.6.186-5.272.375-8.026.307a34.921,34.921,0,0,1-4.17-.331,26.9,26.9,0,0,1-4.2-.931,33.377,33.377,0,0,1-7.531-3.68c-2.281-1.438-4.4-2.965-6.515-4.356-.528-.352-1.056-.684-1.586-1.02l-1.654-1.025c-1.106-.685-2.217-1.377-3.325-2.093A70.611,70.611,0,0,1,24.376,85.8c-1.051-.857-2.065-1.773-3.039-2.737l-.718-.739c-.238-.248-.464-.509-.7-.762s-.45-.511-.667-.766-.437-.508-.646-.769a63.657,63.657,0,0,1-4.69-6.482,89.772,89.772,0,0,1-7.189-14.1q-.746-1.827-1.422-3.682c-.449-1.237-.863-2.486-1.265-3.738a76.852,76.852,0,0,1-2-7.631A101.757,101.757,0,0,1,.2,28.8q-.1-1.953-.174-3.9-.06-1.981.021-3.956c.125-2.629.4-5.239.752-7.823.33-2.588.727-5.154,1.023-7.717.033-.306.09-.674.146-1.027l.12-.533c.039-.178.1-.356.157-.534A5.659,5.659,0,0,1,3.4,1.243,5.093,5.093,0,0,1,3.872.8,4.835,4.835,0,0,1,4.437.431,3.428,3.428,0,0,1,5.072.169C5.182.137,5.293.1,5.4.077L5.743.028a4.636,4.636,0,0,1,2.488.45L7.749.361a48.443,48.443,0,0,1,8.161.815c2.649.448,5.239.948,7.785,1.2l.951.078c.316.024.631.033.946.05.633.026,1.293.039,1.943.043q1.956.013,3.937-.024l3.992-.073c1.34-.021,2.691-.028,4.053,0s2.735.083,4.114.206l1.988.177,1.968.159c2.63.216,5.29.386,7.969.642,1.34.127,2.686.259,4.033.438s2.675.363,4.087.633c1.384.275,2.727.635,4.045,1.016s2.6.8,3.872,1.233c2.535.847,5,1.716,7.466,2.36a36.823,36.823,0,0,0,3.733.777c1.269.205,2.563.366,3.875.509,2.624.29,5.316.535,8.014,1.011.674.127,1.348.258,2.019.417.336.07.67.166,1,.252s.664.179.986.275c1.3.379,2.578.789,3.849,1.22,2.539.867,5.043,1.788,7.548,2.681,1.253.443,2.5.887,3.766,1.3s2.529.8,3.8,1.193c5.095,1.531,10.243,2.918,15.311,4.578" transform="translate(53.889 21.568)" fill="#121212"/>
      <path id="Path_32" data-name="Path 32" d="M454.964,125.713c-4.3-3.991-9.855-6.683-14.758-9.834l-16.721-10.747a181.034,181.034,0,0,0,3.65-21.8c1.527-11.947,2.836-23.9,4.065-35.874.44.034.881.061,1.326.076l10.021.336a3.959,3.959,0,0,0,3.9-3.9c.362-9.341.437-18.7.63-28.046.074-3.56,1.014-8.2-.53-11.525-1.52-3.272-4.935-3.574-8.113-3.786C422.153-.476,405.759.053,389.477.923c-15.957.852-31.991,1.69-47.878,3.444A201.381,201.381,0,0,0,296.93,14.475c-15.212,5.312-30.339,10.875-45.506,16.314a4.147,4.147,0,0,0-1.225.685,1.449,1.449,0,0,0-.642.67,3.758,3.758,0,0,0-.344.576c-6.141-.481-12.615.208-18.717.384q-10.013.289-20.023.678a3.921,3.921,0,0,0-.7-1.637,1.447,1.447,0,0,0-.642-.67,4.149,4.149,0,0,0-1.225-.685c-15.167-5.439-30.294-11-45.506-16.314A201.378,201.378,0,0,0,117.732,4.367C101.844,2.613,85.81,1.775,69.853.923,53.572.053,37.177-.476,20.892.608c-3.179.212-6.594.513-8.113,3.786-1.543,3.323-.6,7.965-.53,11.525.193,9.347.268,18.7.63,28.046a3.959,3.959,0,0,0,3.9,3.9L26.8,47.533c.444-.015.886-.042,1.326-.076,1.229,11.977,2.539,23.927,4.065,35.874a181.143,181.143,0,0,0,3.65,21.8L19.123,115.879c-4.9,3.151-10.459,5.843-14.757,9.834-7.993,7.42-3.786,19.016,2.826,25.993,7.99,8.431,18.872,5,27.048-1.145A66.95,66.95,0,0,0,46.009,139.2a59.987,59.987,0,0,0,5.133-6.653c10.645,10.476,25.261,16.988,39.8,19.759a152.163,152.163,0,0,0,37.016,1.942c12.1-.683,23.832-2.97,34.367-9.23,17.834-10.6,31.7-27.623,40.162-46.41a105.974,105.974,0,0,0,8.271-29.343c6.219.916,12.87.176,19.1-.167a165.147,165.147,0,0,0,18.48-1.888,106.53,106.53,0,0,0,8.519,31.4c8.464,18.787,22.327,35.814,40.161,46.41,10.535,6.26,22.262,8.547,34.367,9.23a152.162,152.162,0,0,0,37.016-1.942c14.535-2.77,29.151-9.283,39.8-19.759a59.954,59.954,0,0,0,5.132,6.653,66.941,66.941,0,0,0,11.77,11.358c8.176,6.149,19.058,9.575,27.048,1.145,6.612-6.977,10.819-18.572,2.826-25.993M246.182,39.338a69.09,69.09,0,0,1-2.3,8.926,32.286,32.286,0,0,1-8.907,12.43,14.177,14.177,0,0,1-7.452,3.324c-.977-.022-1.957-.063-2.939-.112-.168-.031-.336-.061-.5-.1a7.991,7.991,0,0,1-4.509-2.756,23.523,23.523,0,0,1-3.3-6.612,36.308,36.308,0,0,1-1.91-15.515q8.066.024,16.131.084c5.126.043,10.476.488,15.686.332M42.759,130.4c-.776-1.055-1.567-2.1-2.355-3.144l-5.135-6.813a1.133,1.133,0,0,0-1.5-.394,1.112,1.112,0,0,0-.394,1.5l4.452,7.212c.73,1.183,1.454,2.37,2.2,3.543l.593.931q-.929,1.157-1.914,2.27c-.15.17-.31.331-.462.5-.312-.6-.626-1.2-.953-1.791q-1.243-2.254-2.62-4.43a1.5,1.5,0,0,0-2.581,1.509q1.246,2.207,2.363,4.483.558,1.139,1.082,2.294c.079.175.156.35.234.525-1.043,1.037-2.127,2.032-3.231,3q-1.683-2.549-3.371-5.094a1.373,1.373,0,1,0-2.371,1.386q1.632,2.726,3.268,5.451a1.71,1.71,0,0,0,.014.343,34.185,34.185,0,0,1-4.658,3.158c-.1-.305-.207-.609-.329-.906a14.442,14.442,0,0,0-1.62-2.991,1.6,1.6,0,0,0-.884-.68,1.48,1.48,0,0,0-1.671,2.173,12.945,12.945,0,0,1,.775,1.32c.1.2.194.4.288.605l.013.029.02.048q.071.177.136.357a12.687,12.687,0,0,1,.415,1.372v0a13.976,13.976,0,0,1-2.891.747l-1.167-2a1.374,1.374,0,0,0-1.857-.487,1.389,1.389,0,0,0-.487,1.857l.3.572a9.578,9.578,0,0,1-6.153-4.541c-2.062-3.138-4.943-7.844-3.115-11.59,1.614-3.309,5.76-5.416,8.594-7.531,7.029-5.245,14.276-10.211,21.451-15.257a59.67,59.67,0,0,0,3.3,8.128,52.337,52.337,0,0,0,4.519,7.423,4.549,4.549,0,0,0,.034,1.8c-.011-.054-1.591,2.1-2.327,3.116m122.173,1.867a59.973,59.973,0,0,1-30.565,12.242,158.3,158.3,0,0,1-32.979.038c-19.307-2.016-39.829-9.935-50.574-27.054C44.4,107.274,42.93,95.056,41.426,83.331,39.843,70.986,38.054,58.693,36.169,46.4c.218-.026.436-.054.655-.076a2.665,2.665,0,0,0,0-5.326c-.9-.064-1.785-.158-2.672-.26a4.6,4.6,0,0,0-3.491-.408,37.865,37.865,0,0,0-3.859-.237l-6.153-.016c-.022-1.873-.065-3.746-.1-5.619h.019c1.271-.072,2.54-.082,3.812-.1a47.164,47.164,0,0,1,7.816.5c.965.147,1.412-1.282.414-1.5-2.659-.58-5.374-1.046-8.077-1.369-1.315-.157-2.674-.271-4.034-.305q-.03-1.383-.061-2.765c.283,0,.562,0,.83,0,.967.016,1.934.043,2.9.045,1.972.006,3.945-.038,5.917-.053a.976.976,0,0,0,0-1.952c-1.972-.253-3.942-.535-5.917-.768-.965-.114-1.934-.2-2.9-.3-.3-.031-.6-.067-.9-.1q-.029-1.265-.056-2.529c1.031.055,2.073.013,3.1.013q2.187,0,4.373-.105a.977.977,0,0,0,0-1.953c-1.431-.123-2.862-.27-4.286-.465-1.085-.148-2.166-.412-3.255-.551q-.054-2.615-.108-5.229c.315.044.633.077.934.126.831.136,1.665.247,2.5.369q2.451.361,4.894.774a1.21,1.21,0,0,0,1.445-.821,1.191,1.191,0,0,0-.82-1.444q-2.418-.667-4.85-1.282c-.78-.2-1.56-.4-2.347-.564q-.636-.136-1.273-.268c-.181-.038-.363-.08-.546-.113h0q-.013-.637-.026-1.274c-.011-.556-.12-1.275-.093-1.891l.942-.06c1.973.221,4.211-.231,6.212-.312,15.027-.606,30.073-.113,45.081.711,29.15,1.6,58.259,2.837,86.105,12.357,15.924,5.444,31.716,11.3,47.557,16.985a4.081,4.081,0,0,0,1,.225c3.211,35.192-13.843,72.517-41.919,93.787m243.583-14.775c-10.745,17.119-31.267,25.038-50.574,27.054a158.3,158.3,0,0,1-32.979-.038A59.974,59.974,0,0,1,294.4,132.268C266.329,111,249.277,73.693,252.476,38.509c.02-.011.038-.025.057-.037a4.076,4.076,0,0,0,.949-.216c15.841-5.681,31.634-11.54,47.558-16.985C328.887,11.751,358,10.513,387.145,8.914,402.154,8.091,417.2,7.6,432.227,8.2c2,.081,4.238.533,6.211.312l.943.06c.027.616-.082,1.335-.093,1.891l-.017.811c-.054-.008-.106-.02-.16-.028-.783-.116-1.569-.206-2.359-.247a23.528,23.528,0,0,0-4.522.232,1.176,1.176,0,0,0,.312,2.307,21.943,21.943,0,0,1,4.132-.038,16.532,16.532,0,0,1,1.827.253c.24.045.478.1.716.153l-.042,2.052c-.64.007-1.281.009-1.92.036-1.9.081-3.8.205-5.694.422a.9.9,0,0,0-.869.869.877.877,0,0,0,.869.869,49.472,49.472,0,0,1,5.585-.039c.662.037,1.322.1,1.982.156l-.064,3.1c0,.108-.005.216-.007.324-1.681.274-3.358.6-5.038.854-2.455.373-4.908.679-7.382.907-1,.092-1.038,1.608,0,1.586,2.469-.051,4.939-.094,7.408-.15,1.634-.037,3.294-.042,4.942-.121q-.056,2.433-.11,4.867c-.844.059-1.68.146-2.467.192-2.02.119-4.037.279-6.049.5a108.9,108.9,0,0,0-11.844,1.959c-.806.18-.648,1.564.2,1.468,3.928-.443,7.881-.707,11.834-.765,1.953-.028,3.908-.012,5.86.067.782.032,1.587.118,2.4.193-.047,2.272-.1,4.544-.124,6.816l-6.153.016a37.854,37.854,0,0,0-3.859.237,4.6,4.6,0,0,0-3.491.408c-.886.1-1.776.2-2.672.26a2.665,2.665,0,0,0,0,5.326c.219.022.437.05.655.076-1.885,12.3-3.674,24.59-5.257,36.935-1.5,11.726-2.975,23.944-9.388,34.162m40.511,26.823c-2.547,3.878-5.754,5.026-9.087,4.638q.075-.2.153-.4a17.328,17.328,0,0,1,1.722-3.073,1.571,1.571,0,0,0,.159-1.211,1.628,1.628,0,0,0-.563-.816,1.5,1.5,0,0,0-.952-.337,1.513,1.513,0,0,0-1.111.46,19.38,19.38,0,0,0-1.876,2.836c-.291.55-.541,1.116-.782,1.689l-.012.03a20.416,20.416,0,0,1-2.251-1.01c.351-.766.694-1.536,1.051-2.294l2.22-4.705a1.49,1.49,0,0,0-.52-1.982,1.462,1.462,0,0,0-1.983.52l-2.273,4.674c-.361.743-.74,1.482-1.112,2.225-.984-.658-1.94-1.371-2.85-2.107-.44-.356-.874-.721-1.306-1.088.231-.547.463-1.092.7-1.634q1.652-3.71,3.6-7.275a1.191,1.191,0,0,0-2.055-1.2q-2.195,3.481-4.1,7.13c-.158.3-.31.61-.466.914-.774-.719-1.537-1.451-2.279-2.2.22-.55.444-1.1.68-1.643.544-1.254,1.13-2.489,1.717-3.722a74.312,74.312,0,0,1,4-7.295c.728-1.17-1.042-2.144-1.818-1.063a74.339,74.339,0,0,0-4.594,7.251c-.682,1.23-1.29,2.5-1.873,3.781-.07.154-.135.311-.2.466-.11-.123-.227-.24-.336-.363-.838-.947-1.634-1.925-2.411-2.92.342-.73.674-1.465,1.043-2.175q1.086-2.088,2.31-4.1a68.655,68.655,0,0,1,5.378-7.632,1.382,1.382,0,0,0,0-1.9,1.354,1.354,0,0,0-1.9,0,74.029,74.029,0,0,0-5.941,7.926q-1.318,2.035-2.495,4.158l-.5.9c-.79-1.081-1.858-2.529-1.867-2.484a4.55,4.55,0,0,0,.034-1.8,52.347,52.347,0,0,0,4.519-7.423,59.668,59.668,0,0,0,3.3-8.128c7.175,5.046,14.423,10.012,21.451,15.257,2.834,2.115,6.98,4.223,8.594,7.531,1.827,3.746-1.054,8.452-3.116,11.59" transform="translate(0 0)" fill="#121212"/>
      <path id="Path_33" data-name="Path 33" d="M129.11,1.018,128,1.042l-1.063.01-2.117,0h-4.23c-1.409,0-2.817.013-4.224.056s-2.811.091-4.211.2c-5.605.44-11.2,1.17-16.771,2-1.393.21-2.8.4-4.134.655-1.349.259-2.692.584-4.034.942-2.686.719-5.372,1.575-8.154,2.3-1.386.368-2.817.688-4.241.957l-4.144.783-4.137.794-4.129.811-4.12.835-1.029.21-1.072.21c-.713.132-1.426.258-2.137.374-1.42.237-2.836.418-4.236.608l-4.164.558q-2.062.284-4.071.651c-.668.124-1.334.255-1.992.4s-1.362.31-2.041.467c-2.736.623-5.467,1.27-8.2,1.924l-4.095,1-2.046.507-1.023.254-.511.127-.492.13a75.148,75.148,0,0,0-7.844,2.657c-2.623,1.011-5.283,2.051-8.028,2.926l-.516.16-.258.08-.212.073a4.553,4.553,0,0,0-.778.331A3.081,3.081,0,0,0,2.4,26.067a2.3,2.3,0,0,0-.371,1.4,2.76,2.76,0,0,0,.538,1.442l.033.046a.9.9,0,0,1,.166.6,41.338,41.338,0,0,0,.142,7.666c.274,2.564.7,5.126,1.18,7.687A60.609,60.609,0,0,0,8.985,59.565c1.079,2.366,2.209,4.7,3.459,6.959a53.4,53.4,0,0,0,4.179,6.453c.765,1.006,1.608,2,2.446,2.992s1.691,1.958,2.56,2.906A57.413,57.413,0,0,0,27.124,84.2c.968.813,1.971,1.571,3,2.279.5.353,1.059.711,1.593,1.061s1.081.694,1.626,1.033c2.18,1.351,4.4,2.609,6.674,3.73a50.772,50.772,0,0,0,6.965,2.848,30.663,30.663,0,0,0,3.558.907q1.817.359,3.69.576c2.5.285,5.051.426,7.65.538l3.9.172c1.282.049,2.558.079,3.828.082a62.817,62.817,0,0,0,7.526-.4q1.851-.218,3.66-.588c.606-.118,1.193-.263,1.8-.408s1.234-.316,1.847-.483a70.585,70.585,0,0,0,7.184-2.326,48.1,48.1,0,0,0,6.7-3.17l.79-.467.811-.5c.538-.338,1.077-.673,1.61-1.018,1.069-.684,2.114-1.4,3.145-2.127s2.038-1.487,3.023-2.266,1.954-1.574,2.886-2.4a51.586,51.586,0,0,0,5.208-5.318q1.2-1.427,2.322-2.939t2.151-3.1c.687-1.06,1.362-2.133,2.012-3.225s1.272-2.206,1.9-3.323q.464-.839.916-1.689c.293-.564.585-1.109.857-1.678q.84-1.685,1.578-3.437c.994-2.328,1.865-4.729,2.676-7.166q.6-1.829,1.157-3.686c.364-1.233.731-2.5,1.04-3.7a56.611,56.611,0,0,0,1.292-7.53c.284-2.563.451-5.161.635-7.771.1-1.305.179-2.613.288-3.923l.342-3.914c.238-2.6.446-5.2.526-7.793q.052-1.947-.022-3.892c-.016-.324-.027-.648-.048-.971l-.077-.969c-.024-.323-.067-.644-.1-.966-.019-.16-.032-.325-.055-.48l-.085-.451a3.722,3.722,0,0,0-.815-1.6,3.58,3.58,0,0,0-1.506-.985,4.6,4.6,0,0,0-1.824-.232c-.154.019-.31.024-.462.053s-.306.057-.456.1-.3.088-.447.139Zm-.116-.483.423-.187c.157-.055.325-.1.486-.157s.334-.074.5-.111.34-.042.509-.064a5.126,5.126,0,0,1,2.036.24A4.2,4.2,0,0,1,134.7,1.371a4.3,4.3,0,0,1,.992,1.828l.109.509c.029.167.046.327.069.491.042.326.093.652.126.979l.1.982.084.983q.15,1.967.174,3.939c.048,2.627-.036,5.25-.1,7.862-.077,2.615-.1,5.2-.06,7.816s.079,5.236.012,7.885a59.445,59.445,0,0,1-.673,8c-.232,1.357-.5,2.624-.772,3.923s-.573,2.586-.89,3.877-.669,2.578-1.048,3.86-.79,2.561-1.248,3.828-.943,2.529-1.486,3.773c-.264.622-.561,1.243-.844,1.851s-.576,1.2-.873,1.8c-1.188,2.386-2.479,4.739-3.9,7.033q-1.074,1.716-2.241,3.386t-2.465,3.262a53.127,53.127,0,0,1-5.659,5.951,66.7,66.7,0,0,1-6.341,5.087c-1.1.781-2.21,1.542-3.339,2.269q-.845.549-1.7,1.074l-.859.522-.9.523A60.186,60.186,0,0,1,85.736,100.5q-.976.244-1.953.468c-.667.146-1.352.3-2.03.417q-2.039.372-4.087.57a67.2,67.2,0,0,1-8.121.246c-1.341-.034-2.675-.1-4-.178l-3.922-.264c-2.615-.176-5.279-.375-7.962-.757a40.633,40.633,0,0,1-8.023-1.91,53.063,53.063,0,0,1-7.39-3.394,73.139,73.139,0,0,1-6.8-4.258q-.816-.572-1.622-1.157c-.538-.4-1.062-.774-1.606-1.2-1.077-.834-2.111-1.715-3.092-2.64a62.661,62.661,0,0,1-5.439-5.887q-1.262-1.537-2.457-3.111l-1.185-1.576c-.2-.26-.4-.528-.593-.8s-.393-.541-.583-.817a57.115,57.115,0,0,1-4.051-6.866c-1.2-2.356-2.278-4.757-3.318-7.165s-2.026-4.856-2.871-7.36a55.652,55.652,0,0,1-2.027-7.671c-.488-2.57-.989-5.153-1.321-7.778a47.127,47.127,0,0,1-.427-7.972l.2.645A4.81,4.81,0,0,1,.033,27.656,4.374,4.374,0,0,1,.566,25,5.244,5.244,0,0,1,2.4,23.107a6.756,6.756,0,0,1,1.132-.565l.283-.113.243-.09.485-.18c2.586-.969,5.106-2.174,7.677-3.355a77.062,77.062,0,0,1,7.986-3.285l.521-.174.506-.161,1.012-.321,2.028-.631c1.354-.414,2.707-.83,4.068-1.226q4.075-1.2,8.188-2.286c.69-.179,1.361-.355,2.069-.53s1.428-.338,2.142-.49c1.428-.3,2.855-.532,4.27-.751s2.823-.4,4.217-.589S52,7.979,53.366,7.78c.683-.1,1.36-.211,2.034-.327l1.006-.183,1.046-.2c1.4-.255,2.795-.494,4.194-.729s2.8-.448,4.2-.658,2.8-.41,4.207-.594,2.806-.371,4.211-.536c1.363-.16,2.7-.379,4.068-.625,2.724-.5,5.481-1.128,8.3-1.636,1.409-.253,2.835-.475,4.275-.63,1.457-.157,2.858-.228,4.267-.324C100.82.986,106.458.645,112.115.455c2.834-.079,5.659-.019,8.48.021,1.41.023,2.819.059,4.228.063l2.112.006Z" transform="translate(268.729 22.743)" fill="#121212"/>
      <path id="Path_34" data-name="Path 34" d="M134.34,28.163a2.037,2.037,0,0,0-1.4-2.458A496.623,496.623,0,0,0,82.169,11.065,430.726,430.726,0,0,0,30.044,2.132C25.139,1.616,20.217,1.372,15.3,1S5.442.321.513,0c-.688-.045-.68,1.016,0,1.067,4.388.335,8.756.784,13.125,1.31,4.4.53,8.744,1.313,13.121,1.957q13,1.915,25.94,4.294c17.152,3.168,34.113,7.206,50.887,11.979Q117.77,24.645,131.7,29.5c-1.969,9.036-3.888,18.085-6.078,27.071a80.928,80.928,0,0,1-8.589,22.31A75.383,75.383,0,0,1,87,107.111a74.339,74.339,0,0,1-22.434,7.275c-2.182.349-1.7,4.159.527,3.895,14.666-1.744,28.458-8.429,39.554-18.091a74.307,74.307,0,0,0,14.132-16.657,77.139,77.139,0,0,0,9.133-21.878c1.34-5.237,2.225-10.546,3.25-15.847l3.168-16.377a1.281,1.281,0,0,0-.141-.9,1.825,1.825,0,0,0,.146-.366" transform="translate(65.418 15.812)" fill="#121212"/>
      <path id="Path_35" data-name="Path 35" d="M11.336,1.518A1.548,1.548,0,0,0,9.793.155C9.142.236,8.47.238,7.823.339a1.064,1.064,0,0,0-.136.007L7.537.322a6.025,6.025,0,0,0-.78-.093c-.33-.007-.661,0-.992,0L5.536.22q.384.075.061.021c-.276-.015-.549-.1-.825-.114C4.443.105,4.111.106,3.78.087A5.889,5.889,0,0,0,1.372.165,1.92,1.92,0,0,0,.017,1.738a1.894,1.894,0,0,0,.9,1.884,3.529,3.529,0,0,0,1.716.48q.534.024,1.068.03c.355,0,.715.015,1.069-.006a8.063,8.063,0,0,0,.805-.113L5.766,4c.331-.027.662-.058.992-.1a4.637,4.637,0,0,0,.923-.179l.143-.046q.286-.065,0-.054a8.551,8.551,0,0,1,1.339-.191c.351-.057.7-.121,1.048-.189a1.561,1.561,0,0,0,1.125-1.724" transform="translate(46.297 14.41)" fill="#121212"/>
      <path id="Path_36" data-name="Path 36" d="M36.787,88.832c-10.4-5.97-18.06-15.58-23.427-26.158A117.776,117.776,0,0,1,6.237,44.445a73.479,73.479,0,0,1-2.611-9.989A92.652,92.652,0,0,1,2.563,24.34,111.933,111.933,0,0,1,3.912,1.206C4.1.014,2.342-.536,2.059.7c-3.2,13.883-2.274,28.213.08,42.152A77.6,77.6,0,0,0,8.647,62.742a79.242,79.242,0,0,0,10.02,16.1A58.106,58.106,0,0,0,34.555,92.652c2.467,1.433,4.7-2.4,2.233-3.82" transform="translate(43.291 28.402)" fill="#121212"/>
      <path id="Path_37" data-name="Path 37" d="M35.733,8.159a1.918,1.918,0,0,0-2.267-1.113c-1.348.416-2.57,1.1-3.955,1.453a18.027,18.027,0,0,1-3.669.531,24.812,24.812,0,0,1-8.124-1.057C12.016,6.29,6.834,3.351,1.833.2.458-.663-.752,1.468.57,2.362,5.828,5.921,11.056,9.8,17.218,11.639a27.825,27.825,0,0,0,8.951,1.2,23.122,23.122,0,0,0,4.379-.585,12.3,12.3,0,0,0,4.4-1.7,1.952,1.952,0,0,0,.786-2.4" transform="translate(87.33 123.005)" fill="#121212"/>
      <path id="Path_38" data-name="Path 38" d="M.073,28.163a2.037,2.037,0,0,1,1.4-2.458A496.6,496.6,0,0,1,52.244,11.065a430.727,430.727,0,0,1,52.126-8.932c4.905-.517,9.826-.761,14.744-1.132S128.971.321,133.9,0c.688-.045.681,1.016,0,1.067-4.388.335-8.756.784-13.125,1.31-4.4.53-8.744,1.313-13.121,1.957q-13,1.915-25.94,4.294C64.561,11.8,47.6,15.837,30.826,20.609Q16.643,24.645,2.711,29.5C4.68,38.534,6.6,47.582,8.789,56.568a80.928,80.928,0,0,0,8.589,22.31,75.383,75.383,0,0,0,30.03,28.233,74.344,74.344,0,0,0,22.433,7.275c2.182.349,1.7,4.159-.527,3.895-14.666-1.744-28.458-8.429-39.554-18.091A74.311,74.311,0,0,1,15.629,83.532,77.133,77.133,0,0,1,6.5,61.653c-1.34-5.237-2.225-10.546-3.251-15.847L.078,29.429a1.279,1.279,0,0,1,.141-.9,1.8,1.8,0,0,1-.146-.366" transform="translate(258.853 15.812)" fill="#121212"/>
      <path id="Path_39" data-name="Path 39" d="M.013,1.518A1.547,1.547,0,0,1,1.556.155c.651.08,1.323.083,1.969.183a1.065,1.065,0,0,1,.137.007L3.811.322a6.033,6.033,0,0,1,.78-.093c.331-.007.662,0,.992,0L5.812.22Q5.427.295,5.75.241c.276-.015.549-.1.825-.114.33-.022.662-.022.993-.04A5.89,5.89,0,0,1,9.977.165a1.92,1.92,0,0,1,1.355,1.572,1.894,1.894,0,0,1-.9,1.884,3.533,3.533,0,0,1-1.716.48q-.533.024-1.068.03c-.354,0-.715.015-1.069-.006a8.039,8.039,0,0,1-.805-.113L5.583,4c-.331-.027-.662-.058-.992-.1a4.634,4.634,0,0,1-.923-.179l-.143-.046q-.285-.065,0-.054a8.543,8.543,0,0,0-1.339-.191c-.35-.057-.7-.121-1.048-.189A1.56,1.56,0,0,1,.013,1.518" transform="translate(401.037 14.41)" fill="#121212"/>
      <path id="Path_40" data-name="Path 40" d="M1.074,88.832c10.4-5.97,18.06-15.58,23.427-26.158a117.792,117.792,0,0,0,7.123-18.229,73.483,73.483,0,0,0,2.611-9.989A92.511,92.511,0,0,0,35.3,24.34,111.924,111.924,0,0,0,33.95,1.206C33.764.014,35.519-.536,35.8.7c3.2,13.883,2.274,28.213-.08,42.152a77.6,77.6,0,0,1-6.509,19.895,79.236,79.236,0,0,1-10.021,16.1A58.1,58.1,0,0,1,3.307,92.652c-2.467,1.433-4.7-2.4-2.233-3.82" transform="translate(377.531 28.402)" fill="#121212"/>
      <path id="Path_41" data-name="Path 41" d="M28.884.486c-3.637,2.881-8.233,4.242-12.709,5.161C11.045,6.7,5.819,7.26.781,8.739a1.1,1.1,0,0,0,.584,2.118c10.021-2.03,21.008-1.334,29.756-7.472a1.838,1.838,0,1,0-2.237-2.9" transform="translate(338.056 123.071)" fill="#121212"/>
    </g>
  </g>
</svg>
