<svg xmlns="http://www.w3.org/2000/svg" xmlns:xlink="http://www.w3.org/1999/xlink" width="402.952" height="405.174" viewBox="0 0 402.952 405.174">
  <defs>
    <clipPath id="clip-path">
      <rect id="Rectangle_6" data-name="Rectangle 6" width="316.096" height="319.68" fill="#121212"/>
    </clipPath>
  </defs>
  <g id="scuba" transform="translate(0 102.911) rotate(-19)" opacity="0.4">
    <g id="Group_3659" data-name="Group 3659" clip-path="url(#clip-path)">
      <path id="Path_1421" data-name="Path 1421" d="M297.355,86.772c-10.506-7.566-23.906-14.722-36.7-17.213a137.172,137.172,0,0,0-22.775-2.112C230.4,54.5,213.875,46.89,200.209,42.707c-18.018-5.516-37.568-5.142-56.206-4.769-31.295.627-68.258,3.729-89.385,30.266a3.93,3.93,0,0,0-.36.556H41.113V16.267a16.511,16.511,0,0,0,0-2.01v-.765a3.6,3.6,0,0,0-.327-1.546C37.164-4.129,6.867-3.622.77,11.308a3.38,3.38,0,0,0-.731,2.184c0,.132,0,.264,0,.4a3.634,3.634,0,0,0,0,.577Q.038,129.944,0,245.423c0,13.47,1.172,27.028,8.73,38.612,7.667,11.752,20.515,22.28,33.2,28.185,29.741,13.844,68.187,6.921,95.895-8.508,13.889-7.734,26.548-18.635,33.936-32.924a53.776,53.776,0,0,0,3.029-7.177,2.94,2.94,0,0,0,2.32.609c22.071-2.63,42.7-12.3,58.2-28.372,5.025-5.211,9.362-7.684,16.419-9.218,5.927-1.289,11.942-2.181,17.775-3.875a56.36,56.36,0,0,0,26.045-16.231c15.226-16.687,20.2-39.356,20.51-61.37.285-20.482-.485-45.266-18.7-58.383M148.794,117.293a3.812,3.812,0,0,0-.578.631c-19.227,12.395-28.891,33.329-37.459,54-2.843,6.857-5.142,14.469-10.752,19.643-5.046,4.654-12,7.731-18.3,10.222-13,5.138-26.908,7.268-40.6,3.9q0-1.622,0-3.245c16.773.213,39.592-2.293,50.945-15.516,5.966-6.949,8.756-15.741,12.641-23.878a246.9,246.9,0,0,1,16.751-30c.281-.422-.4-.812-.676-.4-5.469,8.12-10.8,16.009-15.289,24.74-4,7.777-7.3,16.174-12.169,23.463-11.312,16.931-33.986,16.066-52.2,18.3q.009-8.734.013-17.468V90.823c35.98,1.055,71.986-.27,107.973.029,17.166.143,34.311.693,51.48.748,17.872.057,37.517-2.095,55.037,2,7.309,1.71,14.447,4.852,19.89,10.141,6.657,6.467,8.666,15.273,10.2,24.106,2.971,17.128,2.533,35.774-6.037,51.318C271.419,194.1,257.839,202.584,240.887,204c-9.1.758-17.556,1.143-23.268-6.964-4.849-6.882-8.3-14.733-11.55-22.459-6.672-15.861-13.282-30.565-24.547-43.79-6.729-7.9-21.845-22.987-32.728-13.49m17.744,147.941c-5.989,12.815-16.575,22.784-28.51,30.071-20.436,12.479-48.413,20.168-73.415,16.327,1.507-5.223-.025-11.227-2.241-16-.514-1.107-2.471-.3-1.994.841,2.1,5.043,1.9,9.621,1.787,14.738a74.4,74.4,0,0,1-8.137-1.979c3.669-6.568,3.494-15.761,2.419-22.861-.185-1.222-2.275-.946-2.17.294a54.618,54.618,0,0,1-.314,13.228c-.473,2.943-1.416,5.783-1.938,8.7a65.658,65.658,0,0,1-8.548-3.568c-12.44-6.276-25.758-17.4-31.7-30.212C6.354,263.109,7.169,249.847,7.2,237.277c.084-35.186,0-70.373,0-105.559V80.287a.711.711,0,0,0,.553-.082,16.564,16.564,0,0,0,2.814-2.592A26.434,26.434,0,0,1,13.64,74.9c1.169-.853.09-2.812-1.158-1.98a23.3,23.3,0,0,0-3.533,2.809A11.34,11.34,0,0,0,7.2,77.892v-18c.012.035.013.065.026.1a.651.651,0,0,0,1.075.283,15.927,15.927,0,0,1,2.88-2.8,13.678,13.678,0,0,1,4.881-1.4c1.644-.273.926-2.711-.684-2.482-2.339.333-7.156,1.432-8.177,4.113V14.65c3.3-10.1,27.477-10.4,26.754,1.617V196.853c0,13.6-.9,27.555.949,41.065,1.549,11.343,6.092,20.995,13.061,30.009,7.277,9.414,15.9,15.51,27.92,16.907,11.537,1.342,23.057-2.066,32.764-8.254,21.643-13.8,30.506-36.778,32.09-61.49.294-4.6-6.868-4.584-7.161,0a102.708,102.708,0,0,1-1.757,13.633c-10.166-1.969-10.379-14.491-8.46-22.578,2.017-8.5,6.806-15.953,11.523-23.18,8.473-12.981,16.863-25.981,24.51-39.46,6.873,13.993,14.521,27.559,22.342,41.047,4.152,7.16,8.481,14.48,10.358,22.626,1.783,7.744,2.169,22.908-8.756,24.17a3.8,3.8,0,0,0-.529.115,95.414,95.414,0,0,0,1.035-16.373c-.1-4.6-7.26-4.618-7.161,0a83.29,83.29,0,0,1-2.63,24.063c-2.35,8.6-3.729,17.979-7.514,26.081M41.22,227.38a43.634,43.634,0,0,0,15.811,3.436c8.509.347,17.857-2.125,26.235-.323,7.063,1.519,13.293,8.475,19.212,12.5a151.742,151.742,0,0,0,19.252,11.042,56.369,56.369,0,0,1-14.72,15.037c-10,6.99-22.165,10.672-34.292,8C60.95,274.486,52.613,264.112,47.18,253.9c-4.383-8.237-5.619-17.359-5.96-26.524m249.262-25.919a51.056,51.056,0,0,1-26.389,15.32c-8.636,2.108-19.23,2.243-26.784,7.335-4.26,2.871-7.4,7.239-11.176,10.692A85.962,85.962,0,0,1,212.1,245.2a88.813,88.813,0,0,1-35,11.856c-.131.016-.246.055-.369.082,1.2-4.51,2.192-9.092,3.464-13.607.5-1.779.933-3.544,1.33-5.305a3.171,3.171,0,0,0,1.8.281c19.406-2.243,18.853-26.222,13.451-40.151-4.008-10.336-10.279-19.721-15.73-29.326-6.126-10.792-11.975-21.727-17.327-32.925a3.021,3.021,0,0,0-1.948-1.725c-1.48-1.648-4.362-2.079-5.732.424-5.74,10.483-11.924,20.7-18.367,30.762-6.264,9.785-13.525,19.267-18.213,29.95-5.608,12.782-7.84,36.911,10.647,40.15a70.022,70.022,0,0,1-4.775,12.184A151.953,151.953,0,0,1,107.115,237.5c-5.8-3.876-11.077-9.569-17.454-12.431-15.108-6.781-32.523,2.909-47.765-5.273a3.973,3.973,0,0,0-.8-.323c0-.075,0-.15,0-.225q0-3.105,0-6.212c12.26,2.63,24.754,1.53,36.721-2.286,10.861-3.464,23.7-8.613,30.768-18.016,8.442-11.228,11.726-26.617,18.194-39.041,6.735-12.939,15.4-24.277,28.273-31.534a3.762,3.762,0,0,0,.791-.6c3.453-.372,8.53,2.851,10.619,4.234,3.636,2.405,6.349,5.832,9.169,9.1a107.024,107.024,0,0,1,15.857,23.764c7.064,14.7,11.488,31.368,21.7,44.378,9.424,12.01,28.17,9.68,41.387,5.808,13.258-3.884,23.932-13.286,30.771-25.148,8.035-13.938,10.134-30.489,8.766-46.319-1.351-15.642-4.25-32.092-17.525-42.048-12.949-9.711-29.4-10.855-45.011-10.794-19.4.077-38.852.253-58.244-.232-44.064-1.1-88.158.667-132.212-.634V75.922H70.139c4.607,0,4.615-7.161,0-7.161H63.673c19.67-20.08,50.805-23.024,77.533-23.6,16.94-.366,34.465-.953,51.093,2.859,12.3,2.82,28.175,8.808,36.766,19.3-4.51-.037-9-.061-13.407-.207-4.609-.151-4.6,7.01,0,7.161,11.771.388,23.629.386,35.374,1.251,12.009.883,22.155,5.553,32.554,11.308,10.312,5.7,18.307,11.677,21.872,23.378,3.039,9.973,3.362,20.75,3.441,31.1.164,21.286-3.615,43.864-18.417,60.147" transform="translate(0 0)" fill="#121212"/>
      <path id="Path_1422" data-name="Path 1422" d="M.98,45.443C11.953,31.416,21.321,15.872,30.61.7c.321-.525-.491-.992-.821-.48C20.123,15.2,9.539,29.648.079,44.748c-.338.539.493,1.215.9.695" transform="translate(220.94 107.633)" fill="#121212"/>
      <path id="Path_1423" data-name="Path 1423" d="M.768,51.56C13.186,36.327,22.445,17.764,32.815,1.1c.506-.814-.77-1.552-1.28-.748C21.045,16.883,8.352,33.248.043,51c-.2.436.369,1,.725.559" transform="translate(222.635 112.551)" fill="#121212"/>
      <path id="Path_1424" data-name="Path 1424" d="M1.213,66.223C8.574,55.608,14.821,44.16,21.771,33.268S35.959,11.635,43.032.806c.4-.616-.543-1.124-.966-.565C26.759,20.529,11.127,42.609.079,65.559a.658.658,0,0,0,1.135.664" transform="translate(219.202 117.12)" fill="#121212"/>
      <path id="Path_1425" data-name="Path 1425" d="M16,.325C11.629,10.581,5.495,19.8.07,29.5a.476.476,0,0,0,.821.479A137.591,137.591,0,0,0,17.2.832c.275-.685-.91-1.191-1.2-.507" transform="translate(235.185 139.541)" fill="#121212"/>
      <path id="Path_1426" data-name="Path 1426" d="M12.141.613C9,9.514,4.569,17.511.062,25.755c-.282.517.462,1.168.857.661,5.849-7.521,9.8-16.374,12.947-25.327C14.25,0,12.522-.467,12.141.613" transform="translate(244.03 142.271)" fill="#121212"/>
      <path id="Path_1427" data-name="Path 1427" d="M6.262.6C4.425,5.406,1.895,9.886.044,14.668c-.262.675.709.934,1.074.452C4.246,10.993,6.173,5.9,7.988,1.08,8.4,0,6.67-.461,6.262.6" transform="translate(251.32 150.531)" fill="#121212"/>
      <path id="Path_1428" data-name="Path 1428" d="M.947,27.819C8.541,20.076,14.211,10.746,19.005,1.075c.4-.815-.776-1.527-1.232-.72C12.484,9.713,6.18,18.325.09,27.157c-.355.516.43,1.1.857.661" transform="translate(219.286 110.596)" fill="#121212"/>
      <path id="Path_1429" data-name="Path 1429" d="M7.66.3C5.191,4.421,2.424,8.366.056,12.543c-.248.439.384.979.725.559A97.455,97.455,0,0,0,8.747.937.63.63,0,0,0,7.66.3" transform="translate(217.067 114.7)" fill="#121212"/>
      <path id="Path_1430" data-name="Path 1430" d="M57.338.153C36.261,24.5,14.985,51.058.082,79.73a.63.63,0,0,0,1.087.635C10.1,67.214,18.1,53.479,27.31,40.492Q41.824,20.027,57.991.805c.377-.451-.262-1.105-.653-.653" transform="translate(47.077 100.878)" fill="#121212"/>
      <path id="Path_1431" data-name="Path 1431" d="M34.374.224C22.854,17.5,10.713,34.542.085,52.388c-.366.616.54,1.11.942.551C13.161,36.082,23.96,18.164,35.219.718c.343-.532-.5-1.015-.845-.494" transform="translate(60.377 123.11)" fill="#121212"/>
      <path id="Path_1432" data-name="Path 1432" d="M22.918.265C15.013,11.02,6.88,21.862.077,33.357c-.328.554.482.994.845.494C8.8,23,16.051,11.709,23.981.887c.469-.64-.6-1.253-1.063-.621" transform="translate(69.308 137.835)" fill="#121212"/>
      <path id="Path_1433" data-name="Path 1433" d="M12.481.429C8.3,6.159,3.779,11.792.085,17.852c-.357.586.5,1.277.967.746C5.806,13.224,9.9,7.175,14.2,1.432c.763-1.02-.965-2.029-1.715-1" transform="translate(79.374 147.786)" fill="#121212"/>
      <path id="Path_1434" data-name="Path 1434" d="M1.1,54.167C13.9,36.625,25.612,18.319,38.578.88c.476-.641-.588-1.237-1.063-.621C24.329,17.363,10.9,34.837.089,53.574c-.386.669.577,1.191,1.014.593" transform="translate(46.643 109.328)" fill="#121212"/>
      <path id="Path_1435" data-name="Path 1435" d="M.452,27.064C7.133,18.659,12.882,9.457,18.931.589c.3-.434-.4-.832-.7-.409C12.09,8.942,5.517,17.548.034,26.741c-.15.252.225.564.417.322" transform="translate(49.465 118.631)" fill="#121212"/>
      <path id="Path_1436" data-name="Path 1436" d="M.608,16.973C4.514,11.5,8.37,6,12.439.641c.349-.459-.428-.905-.773-.452C7.6,5.538,3.641,10.965.053,16.648c-.224.355.319.656.555.325" transform="translate(50.933 114.343)" fill="#121212"/>
      <path id="Path_1437" data-name="Path 1437" d="M.765,14.735c3.549-4.1,6.119-9.2,8.941-13.808.426-.7-.646-1.31-1.087-.636C5.7,4.769,2.2,9.268.04,14.176c-.192.437.351.991.725.559" transform="translate(50.645 109.909)" fill="#121212"/>
      <path id="Path_1438" data-name="Path 1438" d="M98.686.959C82.147-.881,64.875.482,48.244.538,32.559.591,15.989-.836.441,1.317a.62.62,0,0,0,0,1.187c15.554,2.153,32.112.726,47.8.779C64.874,3.339,82.15,4.7,98.686,2.861a.952.952,0,0,0,0-1.9" transform="translate(107.972 69.976)" fill="#121212"/>
      <path id="Path_1439" data-name="Path 1439" d="M51.634.877C34.86-.545,17.243-.093.472,1.2a.49.49,0,0,0,0,.979C17.243,3.47,34.861,3.921,51.634,2.5a.812.812,0,0,0,0-1.622" transform="translate(156.051 63.695)" fill="#121212"/>
      <path id="Path_1440" data-name="Path 1440" d="M.7,2c6.785.388,13.865,1,20.62.028a.789.789,0,0,0,0-1.511C14.567-.449,7.485.161.7.548A.728.728,0,0,0,.7,2" transform="translate(181.915 58.143)" fill="#121212"/>
      <path id="Path_1441" data-name="Path 1441" d="M.391,1.565c3.34.466,7.025.873,10.33,0a.55.55,0,0,0,0-1.052C7.416-.36,3.731.047.391.513a.549.549,0,0,0,0,1.052" transform="translate(184.716 53.707)" fill="#121212"/>
      <path id="Path_1442" data-name="Path 1442" d="M24.346.425c.145-.43-.522-.6-.674-.186C17.773,16.459-.459,25.187.009,43.814A.689.689,0,0,0,1.355,44C2.9,39.6,3.236,34.861,5.235,30.6c2.1-4.481,5.966-7.782,9.016-11.635A60.6,60.6,0,0,0,24.346.425" transform="translate(129.45 166.366)" fill="#121212"/>
      <path id="Path_1443" data-name="Path 1443" d="M9.868.311C5.533,6.514,1.182,13.76.011,21.37a.7.7,0,0,0,1.348.372C4.259,14.481,6.542,7.5,11.076,1.016c.516-.739-.7-1.439-1.208-.706" transform="translate(138.435 185.464)" fill="#121212"/>
      <path id="Path_1444" data-name="Path 1444" d="M21.815,44.674c.538.74,1.841.335,1.559-.657-2.07-7.3-6.6-14.221-10.721-20.537A120.163,120.163,0,0,1,.772.268C.626-.106-.045-.1,0,.373.757,7.879,3.789,14.146,7.729,20.46c4.9,7.856,8.666,16.751,14.086,24.215" transform="translate(162.656 162.409)" fill="#121212"/>
      <path id="Path_1445" data-name="Path 1445" d="M1.662.462C1.1-.586-.38.335.091,1.38,2.273,6.222,4.208,11.619,7.57,15.786c.409.507,1.161-.049,1.028-.6C7.338,9.982,4.182,5.134,1.662.462" transform="translate(170.792 190.74)" fill="#121212"/>
      <path id="Path_1446" data-name="Path 1446" d="M5.469,10.181c-.4-3.406-2.428-6.8-4.026-9.787C.964-.5-.355.287.09,1.184c1.491,3.007,2.387,6.5,4.179,9.321.311.491,1.278.352,1.2-.325" transform="translate(170.014 198.174)" fill="#121212"/>
      <path id="Path_1447" data-name="Path 1447" d="M.714.011a.742.742,0,0,0,0,1.483c7.24.961,11.7,5.747,13.835,12.451a.759.759,0,0,0,1.484-.2C15.976,5.651,8.477-.295.714.011" transform="translate(152.132 229.314)" fill="#121212"/>
      <path id="Path_1448" data-name="Path 1448" d="M.9.043c-.748-.29-1.283.964-.55,1.3C6.769,4.322,9.64,9.508,12.4,15.666c.288.642,1.331.31,1.3-.353C13.408,8.215,7.11,2.45.9.043" transform="translate(152.411 237.527)" fill="#121212"/>
      <path id="Path_1449" data-name="Path 1449" d="M1.141.01C.021-.144-.511,1.458.658,1.763c3.27.856,5.905,5.153,7.478,7.9a81.11,81.11,0,0,1,3.68,8.358c.285.658,1.266.279,1.278-.346A19.049,19.049,0,0,0,9.241,6.629C7.325,3.892,4.664.494,1.141.01" transform="translate(148.49 247.623)" fill="#121212"/>
      <path id="Path_1450" data-name="Path 1450" d="M.219,1.322a27.735,27.735,0,0,1,4.6,6.3C5.935,9.739,6.5,12.075,7.575,14.183a.451.451,0,0,0,.834-.225C8.421,8.931,4.632,3.7,1.306.234.619-.481-.467.608.219,1.322" transform="translate(147.492 258.533)" fill="#121212"/>
      <path id="Path_1451" data-name="Path 1451" d="M.03.969c1.046,4,.7,7.889,1.292,11.9.111.756,1.249.654,1.429,0C3.814,9.021,2.635,4.29,1.54.552A.784.784,0,0,0,.03.969" transform="translate(137.933 278.635)" fill="#121212"/>
      <path id="Path_1452" data-name="Path 1452" d="M.97.974A10.406,10.406,0,0,1,.878,5.706,12.233,12.233,0,0,0,0,9.317.566.566,0,0,0,.846,9.8C3.74,8.244,3.259,3.167,2.481.557A.784.784,0,0,0,.97.974" transform="translate(132.531 285.773)" fill="#121212"/>
      <path id="Path_1453" data-name="Path 1453" d="M.285.805C.46,4.061-.278,7.42.119,10.631c.073.592.987,1.071,1.3.354,1.36-3.086.913-6.921.541-10.18C1.844-.241.225-.3.285.805" transform="translate(128.062 287.852)" fill="#121212"/>
      <path id="Path_1454" data-name="Path 1454" d="M2.069.608C1.724,3.078.71,5.215.02,7.579a.493.493,0,0,0,.819.476c1.787-1.827,2.505-4.536,2.85-7C3.835,0,2.218-.459,2.069.608" transform="translate(115.741 295.238)" fill="#121212"/>
      <path id="Path_1455" data-name="Path 1455" d="M.74,5.9c2.668-.987,5.066-2.511,7.834-3.278a26.377,26.377,0,0,1,9.326-.8c.65.055.771-.971.152-1.126C12.269-.767,4.151-.156.142,4.869-.2,5.292.1,6.136.74,5.9" transform="translate(11.072 18.675)" fill="#121212"/>
      <path id="Path_1456" data-name="Path 1456" d="M1.044,7.149C3.15,6.555,4.835,4.856,6.8,3.889A19.257,19.257,0,0,1,14.86,1.826c1.058-.008.984-1.464,0-1.594a16.851,16.851,0,0,0-8.98.864C3.561,2.038.743,3.564.029,6.134A.833.833,0,0,0,1.044,7.149" transform="translate(8.563 24.33)" fill="#121212"/>
      <path id="Path_1457" data-name="Path 1457" d="M12.587.175C8.006-.645.6,1.386,0,6.9a.563.563,0,0,0,.843.483C2.574,6.251,3.873,4.636,5.637,3.538A13.337,13.337,0,0,1,12.4,1.549c.756-.017.991-1.229.186-1.374" transform="translate(8.825 33.566)" fill="#121212"/>
      <path id="Path_1458" data-name="Path 1458" d="M11.49.022C7.294-.2,1.9,1.271.07,5.481-.209,6.126.386,6.893,1.085,6.5,4.543,4.531,7.336,2.219,11.49,1.9a.937.937,0,0,0,0-1.874" transform="translate(7.354 43.784)" fill="#121212"/>
      <path id="Path_1459" data-name="Path 1459" d="M6.416.015C3.928.378.538,1.942.015,4.709a.765.765,0,0,0,1.109.853c.963-.556,1.75-1.39,2.7-1.977A9.309,9.309,0,0,1,7.041,2.28C8.547,1.99,7.879-.2,6.416.015" transform="translate(8.338 63.242)" fill="#121212"/>
      <path id="Path_1460" data-name="Path 1460" d="M6.781.365c.026,26.085.3,52.149.984,78.229.625,23.962,2.258,48.092-7.694,70.528a.7.7,0,0,0,1.208.706c11.95-19.38,10.007-43.774,9.451-65.544Q9.662,42.289,7.536.365a.378.378,0,0,0-.755,0" transform="translate(20.944 90.66)" fill="#121212"/>
      <path id="Path_1461" data-name="Path 1461" d="M1.2,20.644c4.532-5.6,7.689-12.3,7.839-19.591a1.092,1.092,0,0,0-2.182,0C6.5,7.979,2.7,13.562.058,19.762c-.289.679.57,1.588,1.143.882" transform="translate(20.884 234.697)" fill="#121212"/>
      <path id="Path_1462" data-name="Path 1462" d="M4.1,1.044C5.956,9.657,1.781,16.414.022,24.486a.815.815,0,0,0,1.483.625C6.015,18.132,7.964,8.633,5.714.6A.84.84,0,0,0,4.1,1.044" transform="translate(29.051 264.332)" fill="#121212"/>
      <path id="Path_1463" data-name="Path 1463" d="M1.551.841C2.213,8.023.98,14.621.011,21.694a.826.826,0,0,0,1.592.439C4.337,15.55,4.219,7.782,3.313.841c-.144-1.1-1.869-1.146-1.762,0" transform="translate(38.7 274.288)" fill="#121212"/>
      <path id="Path_1464" data-name="Path 1464" d="M1.887,1.08c1.667,7.334.076,13.6-1.863,20.65a.562.562,0,0,0,1.022.431C5.377,16.025,5.355,7.636,3.559.619a.868.868,0,0,0-1.672.461" transform="translate(45.202 281.823)" fill="#121212"/>
      <path id="Path_1465" data-name="Path 1465" d="M0,1.117C.182,3.5-.01,6.4,1.089,8.587a.637.637,0,0,0,1.15-.15c.777-2.233.216-5.008.087-7.32C2.242-.374-.108-.37,0,1.117" transform="translate(68.984 299.462)" fill="#121212"/>
      <path id="Path_1466" data-name="Path 1466" d="M2.78,1a1.414,1.414,0,0,0-2.724.751Q.7,4.107,1.341,6.462a13.3,13.3,0,0,0,1.534,4.194A1.045,1.045,0,0,0,4.8,10.133a13.388,13.388,0,0,0-.777-4.412Q3.4,3.361,2.78,1" transform="translate(75.418 300.413)" fill="#121212"/>
      <path id="Path_1467" data-name="Path 1467" d="M2.914,1.079C2.659-.791-.318-.039.028,1.875.22,2.937.406,4,.606,5.06A4.177,4.177,0,0,0,1.738,7.643.884.884,0,0,0,3.1,7.468a4.379,4.379,0,0,0,.275-3c-.148-1.13-.308-2.259-.462-3.388" transform="translate(82.215 299.894)" fill="#121212"/>
      <path id="Path_1468" data-name="Path 1468" d="M3.792.911C3.161,7.025,1.115,12.6.015,18.58c-.165.9,1.071,1.563,1.559.658C4.492,13.824,5.205,6.964,5.694.911c.1-1.228-1.778-1.2-1.9,0" transform="translate(21.178 266.261)" fill="#121212"/>
      <path id="Path_1469" data-name="Path 1469" d="M4.317.643Q2.987,3.02,1.658,5.4C.9,6.749-.029,8.146,0,9.743a.846.846,0,0,0,1.262.724c1.354-.839,2.017-2.329,2.746-3.7Q5.29,4.365,6.563,1.955C7.346.48,5.137-.824,4.317.643" transform="translate(14.171 268.249)" fill="#121212"/>
      <path id="Path_1470" data-name="Path 1470" d="M4.593,1.6C5.217,0,2.648-.685,2.03.892c-.446,1.139-.9,2.277-1.338,3.418A6.093,6.093,0,0,0,.038,7.483c.116.8,1.123.821,1.614.426a6.606,6.606,0,0,0,1.6-2.893C3.7,3.878,4.146,2.737,4.593,1.6" transform="translate(12.398 258.794)" fill="#121212"/>
      <path id="Path_1471" data-name="Path 1471" d="M.794.655A5.588,5.588,0,0,0,0,3.336a.792.792,0,0,0,1.178.676A5.525,5.525,0,0,0,3.064,1.982C4.022.564,1.507-.873.794.655" transform="translate(10.19 250.77)" fill="#121212"/>
      <path id="Path_1472" data-name="Path 1472" d="M.805,7.3C1.947,6.277,2.853,5.025,4.026,4.033A11.824,11.824,0,0,1,8.532,1.706.868.868,0,0,0,8.071.033C4.819.9.7,3.248.01,6.841A.48.48,0,0,0,.805,7.3" transform="translate(10.523 106.782)" fill="#121212"/>
      <path id="Path_1473" data-name="Path 1473" d="M1.315,6.2c1.06-1.053,1.739-2.333,3.031-3.176a7.045,7.045,0,0,1,4.44-1.106C10,2,9.965.162,8.786.038,5.439-.311.263,1.743,0,5.651A.777.777,0,0,0,1.315,6.2" transform="translate(9.654 117.557)" fill="#121212"/>
      <path id="Path_1474" data-name="Path 1474" d="M9.312,0A10.173,10.173,0,0,0,2.953,2.314C1.347,3.623-.385,5.784.076,7.975a.958.958,0,0,0,1.589.42c1.12-1.177,1.592-2.747,2.82-3.883A7.476,7.476,0,0,1,9.312,2.517,1.259,1.259,0,0,0,9.312,0" transform="translate(9.931 126.657)" fill="#121212"/>
      <path id="Path_1475" data-name="Path 1475" d="M7.38.014A9.716,9.716,0,0,0,2.216,2.457C1.22,3.372-.71,5.587.27,7.014a.744.744,0,0,0,.805.328C2.289,7.073,3.009,5.21,3.862,4.373A8.051,8.051,0,0,1,7.982,2.2c1.454-.3.805-2.391-.6-2.185" transform="translate(9.972 136.452)" fill="#121212"/>
      <path id="Path_1476" data-name="Path 1476" d="M6.771.015A8.865,8.865,0,0,0,2.147,2.206C1,3.226-.37,4.982.092,6.6A1,1,0,0,0,1.551,7.2C2.575,6.429,3.008,5.126,3.9,4.209A6.528,6.528,0,0,1,7.418,2.361C8.98,2.058,8.284-.2,6.771.015" transform="translate(10.158 143.91)" fill="#121212"/>
      <path id="Path_1477" data-name="Path 1477" d="M5.177.211A12.78,12.78,0,0,0,1.287,4.09C.416,5.469-.5,7.311.322,8.883A.822.822,0,0,0,1.6,9.047C2.62,8.195,2.847,6.763,3.48,5.63A9.836,9.836,0,0,1,6.434,2.36c1.292-.908.1-3.033-1.257-2.149" transform="translate(10.63 153.328)" fill="#121212"/>
      <path id="Path_1478" data-name="Path 1478" d="M1.946,9.95C2.874,8.687,3.2,7.045,4.011,5.693A10.507,10.507,0,0,1,7.6,2.093,1.134,1.134,0,0,0,6.457.137C3.386,1.676-1.007,5.846.207,9.723a.965.965,0,0,0,1.739.227" transform="translate(9.83 163.877)" fill="#121212"/>
      <path id="Path_1479" data-name="Path 1479" d="M30.5.146C17.047,12.215,7.357,30.782.046,47.113c-.229.511.44,1.189.857.661,5.332-6.767,8.805-15,12.969-22.512C18.752,16.461,24.246,8.168,31.249.9A.532.532,0,0,0,30.5.146" transform="translate(121.782 131.21)" fill="#121212"/>
      <path id="Path_1480" data-name="Path 1480" d="M41.015,55.072c-6.753-1.643-12.619-2.482-17.071-8.5-3.751-5.069-6.4-10.9-8.864-16.664C10.72,19.719,7.224,8.832.257.053.141-.093-.055.093.014.24c6.242,13.224,11.029,27.335,17.953,40.2,5.264,9.785,11.26,15.5,22.854,16.056a.73.73,0,0,0,.193-1.428" transform="translate(187.156 164.117)" fill="#121212"/>
      <path id="Path_1481" data-name="Path 1481" d="M21.669,14.646c-3.6-1.893-8.022-1.745-11.47-3.99-3.59-2.337-6.31-7-8.819-10.341C.834-.413-.394.243.125,1.049c2.522,3.921,4.667,8.808,8.463,11.7A21.208,21.208,0,0,0,21.2,16.366a.93.93,0,0,0,.466-1.72" transform="translate(204.203 211.403)" fill="#121212"/>
      <path id="Path_1482" data-name="Path 1482" d="M13.141,11.1C10.8,9.726,8.462,8.761,6.44,6.859A25.337,25.337,0,0,1,1.611.448C1.061-.568-.369.324.089,1.337c2.205,4.883,6.443,11.513,12.663,11.2a.776.776,0,0,0,.389-1.433" transform="translate(203.953 220.714)" fill="#121212"/>
      <path id="Path_1483" data-name="Path 1483" d="M4.729,4.574A35.568,35.568,0,0,1,1.483.375.8.8,0,0,0,.107,1.18,35.174,35.174,0,0,0,3.07,5.855c.82,1.086,1.819,2.669,3.305,2.71a.648.648,0,0,0,.643-.643C6.973,6.544,5.6,5.534,4.729,4.574" transform="translate(202.346 228.63)" fill="#121212"/>
      <path id="Path_1484" data-name="Path 1484" d="M1.469.386C1.09-.415-.237.15.037.99.5,2.4.965,3.817,1.51,5.2A4.755,4.755,0,0,0,3.467,8.035.565.565,0,0,0,4.288,7.7a5,5,0,0,0-.843-3.317C2.781,3.052,2.1,1.73,1.469.386" transform="translate(199.79 232.789)" fill="#121212"/>
      <path id="Path_1485" data-name="Path 1485" d="M2.574,1.243A1.288,1.288,0,0,0,0,1.243C0,2.963.118,5.533,1.72,6.574a.9.9,0,0,0,1.315-.535,5.48,5.48,0,0,0-.167-2.331,13.974,13.974,0,0,1-.295-2.466" transform="translate(194.646 236.313)" fill="#121212"/>
      <path id="Path_1486" data-name="Path 1486" d="M34.478.6a.406.406,0,0,0-.7-.41c-8.4,12.192-20.716,15.4-33.35,21.478-.906.436-.217,1.649.636,1.508C14.423,20.985,28.265,12.795,34.478.6" transform="translate(80.053 192.929)" fill="#121212"/>
      <path id="Path_1487" data-name="Path 1487" d="M17.082.763c.367-.477-.4-1.021-.813-.627C11.352,4.877,5.99,8.065.246,11.625a.52.52,0,0,0,.4.946C7.129,10.907,13.066,5.984,17.082.763" transform="translate(93.614 206.708)" fill="#121212"/>
      <path id="Path_1488" data-name="Path 1488" d="M10.152.882A.6.6,0,0,0,9.113.275a18.911,18.911,0,0,1-4.4,4.245C3.3,5.511,1.547,6.055.254,7.177A.848.848,0,0,0,.847,8.609C2.769,8.648,4.8,7.217,6.215,6.031A15.566,15.566,0,0,0,10.152.882" transform="translate(99.346 216.237)" fill="#121212"/>
      <path id="Path_1489" data-name="Path 1489" d="M4.817.255c-.89.779-1.778,1.559-2.657,2.351A6.459,6.459,0,0,0,.038,5.086a.861.861,0,0,0,1.05,1.05A6.618,6.618,0,0,0,3.677,4.122Q4.929,2.871,6.162,1.6C7.025.714,5.732-.545,4.817.255" transform="translate(104.005 222.502)" fill="#121212"/>
      <path id="Path_1490" data-name="Path 1490" d="M2.94.316q-.782.964-1.6,1.9A4.578,4.578,0,0,0,.015,4.121a.736.736,0,0,0,.894.894A3.968,3.968,0,0,0,2.663,3.535q.81-.941,1.582-1.913C4.978.7,3.692-.61,2.94.316" transform="translate(108.268 228.413)" fill="#121212"/>
      <path id="Path_1491" data-name="Path 1491" d="M1.459.423A7.72,7.72,0,0,0,0,3.273c-.066.515.6.792.989.568a8,8,0,0,0,2.036-2.5C3.7.391,2.083-.579,1.459.423" transform="translate(113.185 233.136)" fill="#121212"/>
      <path id="Path_1492" data-name="Path 1492" d="M.131.814c8.629,9.507,12.6,19.57,14.07,32.268,1.253,10.833.594,21.746.711,32.62a.462.462,0,0,0,.923,0C18.484,42.473,18.457,17.468.8.141A.476.476,0,0,0,.131.814" transform="translate(285.979 92.526)" fill="#121212"/>
      <path id="Path_1493" data-name="Path 1493" d="M115.414,2.89a.9.9,0,0,0,0-1.79C96.039-.82,76.08.358,56.623.358c-9.334,0-18.662.023-28,.15C19.354.634,9.636-.065.46,1.374a.649.649,0,0,0,0,1.241c8.736,1.37,17.94.733,26.767.848,9.8.128,19.595.167,29.4.167,19.456,0,39.417,1.178,58.791-.741" transform="translate(120.403 95.53)" fill="#121212"/>
      <path id="Path_1494" data-name="Path 1494" d="M39.779,44.072a.885.885,0,0,0,1.731-.235c.042-4.7-2.335-8.689-4.411-12.791A82.7,82.7,0,0,0,27.973,16.2,44.527,44.527,0,0,0,.713.01.574.574,0,0,0,.408,1.116C19.772,7.453,34.747,24.148,39.779,44.072" transform="translate(160.726 108.826)" fill="#121212"/>
      <path id="Path_1495" data-name="Path 1495" d="M.3,63.927c-.816.678.224,1.733,1.051,1.362,24.51-11,24.631-42.866,20.478-65.046-.08-.426-.72-.243-.648.179C25.411,25,19.708,47.788.3,63.927" transform="translate(256.57 128.085)" fill="#121212"/>
    </g>
  </g>
</svg>
