<svg xmlns="http://www.w3.org/2000/svg" xmlns:xlink="http://www.w3.org/1999/xlink" width="2583.177" height="764.791" viewBox="0 0 2583.177 764.791">
  <defs>
    <linearGradient id="linear-gradient" x1="0.5" x2="0.5" y2="1" gradientUnits="objectBoundingBox">
      <stop offset="0" stop-color="#0057b8"/>
      <stop offset="1" stop-color="#009cde"/>
    </linearGradient>
    <filter id="Rectangle_2" x="-9" y="-6" width="2601.177" height="782.791" filterUnits="userSpaceOnUse">
      <feOffset dy="3" input="SourceAlpha"/>
      <feGaussianBlur stdDeviation="3" result="blur"/>
      <feFlood flood-opacity="0.161"/>
      <feComposite operator="in" in2="blur"/>
      <feComposite in="SourceGraphic"/>
    </filter>
    <clipPath id="clip-path">
      <g transform="matrix(1, 0, 0, 1, 0, 0)" filter="url(#Rectangle_2)">
        <rect id="Rectangle_2-2" data-name="Rectangle 2" width="2583.177" height="764.791" fill="url(#linear-gradient)"/>
      </g>
    </clipPath>
  </defs>
  <g id="Group_3642" data-name="Group 3642" clip-path="url(#clip-path)">
    <path id="Path_4" data-name="Path 4" d="M2583.177,20C2454.02,20,2454.02,0,2324.862,0S2195.7,20,2066.547,20,1937.388,0,1808.231,0s-129.159,20-258.318,20S1420.758,0,1291.6,0s-129.158,20-258.314,20S904.129,0,774.971,0,645.812,20,516.654,20,387.491,0,258.327,0,129.164,20,0,20V768.844H2583.177Z" fill="url(#linear-gradient)"/>
  </g>
</svg>
