<svg xmlns="http://www.w3.org/2000/svg" width="79.073" height="104.555" viewBox="0 0 79.073 104.555">
  <path id="Path_1496" data-name="Path 1496" d="M87.289,73.092C91.771,70.5,95.1,54.9,98.322,35.109c1.963-.94,3.757-7.181,1.337-11.373A5.217,5.217,0,0,0,97.5,21.322C93.841,19,60.965,15.811,57.207,17.981c-2.459,1.419-1.717,5.04-.632,6.919C59.512,29.987,63.6,33.075,70.3,35c-7.855,2.426-18.794,7.266-30.442,2.252C26.46,31.617,21.444,16.629,15.908,4.671A7.49,7.49,0,0,0,11.728.679,8.375,8.375,0,0,0,1.038,4.322,8.914,8.914,0,0,0,.09,9.908C3.136,36.2,14.2,50.121,28.065,55.849c8.466,3.627,36.875,5.583,48.8-4.958-1.783,8.754-2.859,16.892-2,18.383,1.9,2.953,8.372,6.154,12.42,3.817" transform="translate(79.073 3.867) rotate(93)" fill="#009cde" opacity="0.37" style="mix-blend-mode: multiply;isolation: isolate"/>
</svg>
