<svg xmlns="http://www.w3.org/2000/svg" width="761.029" height="761.299" viewBox="0 0 761.029 761.299">
  <g id="sun-header" transform="translate(-439.975 -599.796)">
    <path id="Path_5" data-name="Path 5" d="M472.166,266.234c0,113.522-92.027,205.549-205.549,205.549S61.067,379.756,61.067,266.234,153.095,60.685,266.616,60.685s205.549,92.027,205.549,205.549" transform="translate(553.872 714.212)" fill="#f1b434"/>
    <g id="Group_3646" data-name="Group 3646" transform="translate(746.859 1361.095) rotate(-124)">
      <path id="Path_6" data-name="Path 6" d="M0,41.818a2.5,2.5,0,0,1-2.5-2.5,19.809,19.809,0,0,1,1.262-7.366,14.935,14.935,0,0,0,.991-5.743,14.932,14.932,0,0,0-.991-5.741A19.812,19.812,0,0,1-2.5,13.1,19.789,19.789,0,0,1-1.238,5.736,14.91,14.91,0,0,0-.247,0a2.5,2.5,0,0,1,2.5-2.5A2.5,2.5,0,0,1,4.753,0,19.786,19.786,0,0,1,3.49,7.362,14.913,14.913,0,0,0,2.5,13.1a14.935,14.935,0,0,0,.991,5.743,19.809,19.809,0,0,1,1.262,7.366A19.812,19.812,0,0,1,3.49,33.577,14.932,14.932,0,0,0,2.5,39.318,2.5,2.5,0,0,1,0,41.818Z" transform="translate(272.674 2.816)" fill="#f1b434"/>
      <path id="Path_7" data-name="Path 7" d="M7.594,41.144a2.5,2.5,0,0,1-2.42-1.879,19.813,19.813,0,0,1-.609-7.449A14.935,14.935,0,0,0,4.1,26.007a14.929,14.929,0,0,0-2.387-5.316,19.813,19.813,0,0,1-3.055-6.821,19.79,19.79,0,0,1-.608-7.446,14.913,14.913,0,0,0-.467-5.8,2.5,2.5,0,0,1,1.8-3.043,2.5,2.5,0,0,1,3.043,1.8A19.789,19.789,0,0,1,3.03,6.824a14.913,14.913,0,0,0,.467,5.8,14.935,14.935,0,0,0,2.388,5.315,19.806,19.806,0,0,1,3.055,6.822,19.813,19.813,0,0,1,.609,7.449,14.936,14.936,0,0,0,.468,5.808,2.5,2.5,0,0,1-2.423,3.122Z" transform="translate(207.235 11.225)" fill="#f1b434"/>
      <path id="Path_8" data-name="Path 8" d="M16.97,38.041a2.5,2.5,0,0,1-2.193-1.3,19.809,19.809,0,0,1-2.443-7.064,14.927,14.927,0,0,0-1.9-5.508A14.933,14.933,0,0,0,6.8,19.616a19.81,19.81,0,0,1-4.654-5.847A19.783,19.783,0,0,1-.295,6.709a14.907,14.907,0,0,0-1.9-5.5,2.5,2.5,0,0,1,.986-3.4,2.5,2.5,0,0,1,3.4.986A19.784,19.784,0,0,1,4.632,5.856a14.907,14.907,0,0,0,1.9,5.5,14.933,14.933,0,0,0,3.634,4.554,19.809,19.809,0,0,1,4.655,5.849,19.8,19.8,0,0,1,2.443,7.063,14.932,14.932,0,0,0,1.9,5.509,2.5,2.5,0,0,1-2.188,3.7Z" transform="translate(143.763 36.204)" fill="#f1b434"/>
      <path id="Path_9" data-name="Path 9" d="M25.273,32.7a2.493,2.493,0,0,1-1.823-.789,19.815,19.815,0,0,1-4.123-6.235,14.932,14.932,0,0,0-3.209-4.864,14.929,14.929,0,0,0-4.652-3.508A19.812,19.812,0,0,1,5.5,12.8a19.792,19.792,0,0,1-4.12-6.232,14.908,14.908,0,0,0-3.205-4.86,2.5,2.5,0,0,1,.111-3.534,2.5,2.5,0,0,1,3.534.111A19.784,19.784,0,0,1,5.943,4.52a14.915,14.915,0,0,0,3.205,4.86A14.935,14.935,0,0,0,13.8,12.888a19.806,19.806,0,0,1,5.963,4.506,19.808,19.808,0,0,1,4.123,6.234A14.938,14.938,0,0,0,27.1,28.493,2.5,2.5,0,0,1,25.273,32.7Z" transform="translate(88.495 76.183)" fill="#f1b434"/>
      <path id="Path_10" data-name="Path 10" d="M31.988,25.47a2.488,2.488,0,0,1-1.337-.389,19.8,19.8,0,0,1-5.545-5.014,14.928,14.928,0,0,0-4.316-3.912,14.931,14.931,0,0,0-5.38-2.241,19.806,19.806,0,0,1-6.9-2.881A19.79,19.79,0,0,1,2.974,6.021,14.914,14.914,0,0,0-1.34,2.111a2.5,2.5,0,0,1-.771-3.45,2.5,2.5,0,0,1,3.45-.771A19.79,19.79,0,0,1,6.88,2.9a14.914,14.914,0,0,0,4.313,3.91,14.929,14.929,0,0,0,5.378,2.24,19.808,19.808,0,0,1,6.9,2.883,19.8,19.8,0,0,1,5.543,5.013,14.927,14.927,0,0,0,4.318,3.913,2.5,2.5,0,0,1-1.342,4.611Z" transform="translate(44.907 128.651)" fill="#f1b434"/>
      <path id="Path_11" data-name="Path 11" d="M36.7,16.793a2.5,2.5,0,0,1-.773-.123,19.814,19.814,0,0,1-6.615-3.477,14.931,14.931,0,0,0-5.156-2.717,14.938,14.938,0,0,0-5.767-.832,19.805,19.805,0,0,1-7.4-1.077A19.787,19.787,0,0,1,4.378,5.092,14.912,14.912,0,0,0-.772,2.378,2.5,2.5,0,0,1-2.378-.772,2.5,2.5,0,0,1,.772-2.378,19.788,19.788,0,0,1,7.385,1.1a14.912,14.912,0,0,0,5.15,2.715,14.929,14.929,0,0,0,5.767.833,19.815,19.815,0,0,1,7.4,1.076A19.808,19.808,0,0,1,32.316,9.2a14.937,14.937,0,0,0,5.154,2.717,2.5,2.5,0,0,1-.772,4.878Z" transform="translate(15.735 190.31)" fill="#f1b434"/>
      <path id="Path_12" data-name="Path 12" d="M39.1,7.217q-.079,0-.159-.005A19.81,19.81,0,0,1,31.668,5.49,14.939,14.939,0,0,0,26,4.141a14.937,14.937,0,0,0-5.792.628,19.809,19.809,0,0,1-7.433.8A19.785,19.785,0,0,1,5.506,3.844,14.909,14.909,0,0,0-.157,2.5,2.5,2.5,0,0,1-2.5-.157,2.5,2.5,0,0,1,.157-2.5,19.785,19.785,0,0,1,7.426-.773,14.909,14.909,0,0,0,13.089.575a14.933,14.933,0,0,0,5.794-.628,19.815,19.815,0,0,1,7.431-.8A19.818,19.818,0,0,1,33.587.873a14.933,14.933,0,0,0,5.669,1.349,2.5,2.5,0,0,1-.154,5Z" transform="translate(2.816 257.287)" fill="#f1b434"/>
      <path id="Path_13" data-name="Path 13" d="M9.619,7.938a21.922,21.922,0,0,1-3.33-.289,14.906,14.906,0,0,0-5.82.1A2.5,2.5,0,0,1-2.456,5.765,2.5,2.5,0,0,1-.469,2.84,19.782,19.782,0,0,1,7,2.7a14.91,14.91,0,0,0,5.821-.1A14.928,14.928,0,0,0,18.276.55a19.806,19.806,0,0,1,7-2.62,19.8,19.8,0,0,1,7.472-.141,14.928,14.928,0,0,0,5.825-.1A2.5,2.5,0,1,1,39.512,2.6a19.8,19.8,0,0,1-7.473.141,14.928,14.928,0,0,0-5.825.1A14.93,14.93,0,0,0,20.758,4.89a19.8,19.8,0,0,1-7,2.62A21.883,21.883,0,0,1,9.619,7.938Z" transform="translate(6.958 320.077)" fill="#f1b434"/>
      <path id="Path_14" data-name="Path 14" d="M0,17.2a2.5,2.5,0,0,1-2.264-1.436,2.5,2.5,0,0,1,1.2-3.326,19.787,19.787,0,0,1,7.2-1.993A14.906,14.906,0,0,0,11.748,8.9,14.929,14.929,0,0,0,16.522,5.56,19.812,19.812,0,0,1,22.65,1.281a19.81,19.81,0,0,1,7.2-1.995A14.927,14.927,0,0,0,35.47-2.262a2.5,2.5,0,0,1,3.327,1.2,2.5,2.5,0,0,1-1.2,3.327,19.8,19.8,0,0,1-7.2,1.995,14.932,14.932,0,0,0-5.618,1.548,14.935,14.935,0,0,0-4.773,3.341,19.8,19.8,0,0,1-6.129,4.279,19.782,19.782,0,0,1-7.2,1.994,14.911,14.911,0,0,0-5.612,1.546A2.491,2.491,0,0,1,0,17.2Z" transform="translate(27.902 375.588)" fill="#f1b434"/>
      <path id="Path_15" data-name="Path 15" d="M0,25.827a2.5,2.5,0,0,1-1.928-.907,2.5,2.5,0,0,1,.333-3.52,19.788,19.788,0,0,1,6.477-3.72,14.91,14.91,0,0,0,5.052-2.894,14.928,14.928,0,0,0,3.793-4.424A19.819,19.819,0,0,1,18.6,4.694,19.813,19.813,0,0,1,25.081.971a14.932,14.932,0,0,0,5.056-2.9,2.5,2.5,0,0,1,3.52.332,2.5,2.5,0,0,1-.332,3.52A19.809,19.809,0,0,1,26.843,5.65a14.935,14.935,0,0,0-5.055,2.9A14.94,14.94,0,0,0,18,12.971a19.8,19.8,0,0,1-4.872,5.669A19.785,19.785,0,0,1,6.645,22.36a14.912,14.912,0,0,0-5.051,2.893A2.49,2.49,0,0,1,0,25.827Z" transform="translate(64.333 424.631)" fill="#f1b434"/>
      <path id="Path_16" data-name="Path 16" d="M0,32.985a2.489,2.489,0,0,1-1.467-.478,2.5,2.5,0,0,1-.553-3.492A19.782,19.782,0,0,1,3.327,23.8,14.913,14.913,0,0,0,7.5,19.741a14.933,14.933,0,0,0,2.573-5.227,19.808,19.808,0,0,1,3.31-6.7,19.8,19.8,0,0,1,5.351-5.218A14.933,14.933,0,0,0,22.91-1.47,2.5,2.5,0,0,1,26.4-2.022a2.5,2.5,0,0,1,.553,3.492A19.81,19.81,0,0,1,21.6,6.687a14.926,14.926,0,0,0-4.176,4.063,14.931,14.931,0,0,0-2.574,5.228,19.811,19.811,0,0,1-3.308,6.7A19.79,19.79,0,0,1,6.2,27.895a14.906,14.906,0,0,0-4.173,4.059A2.5,2.5,0,0,1,0,32.985Z" transform="translate(113.96 464.271)" fill="#f1b434"/>
      <path id="Path_17" data-name="Path 17" d="M0,38.228a2.493,2.493,0,0,1-.92-.176,2.5,2.5,0,0,1-1.4-3.245,19.792,19.792,0,0,1,3.884-6.381,14.916,14.916,0,0,0,3.033-4.97,14.928,14.928,0,0,0,1.193-5.7,19.809,19.809,0,0,1,1.538-7.314,19.819,19.819,0,0,1,3.886-6.385A14.933,14.933,0,0,0,14.243-.92a2.5,2.5,0,0,1,3.245-1.4A2.5,2.5,0,0,1,18.892.92,19.81,19.81,0,0,1,15.007,7.3a14.941,14.941,0,0,0-3.035,4.974,14.932,14.932,0,0,0-1.192,5.7A19.8,19.8,0,0,1,9.241,25.3a19.792,19.792,0,0,1-3.884,6.381,14.916,14.916,0,0,0-3.033,4.97A2.5,2.5,0,0,1,0,38.228Z" transform="translate(173.666 492.013)" fill="#f1b434"/>
      <path id="Path_18" data-name="Path 18" d="M0,41.226a2.523,2.523,0,0,1-.317-.02A2.5,2.5,0,0,1-2.48,38.412,19.789,19.789,0,0,1-.305,31.265,14.913,14.913,0,0,0,1.4,25.7a14.936,14.936,0,0,0-.263-5.82,19.811,19.811,0,0,1-.328-7.468A19.807,19.807,0,0,1,2.98,5.26a14.932,14.932,0,0,0,1.7-5.573A2.5,2.5,0,0,1,7.475-2.48,2.5,2.5,0,0,1,9.642.313,19.809,19.809,0,0,1,7.468,7.464a14.93,14.93,0,0,0-1.7,5.572,14.935,14.935,0,0,0,.263,5.822,19.814,19.814,0,0,1,.329,7.466,19.789,19.789,0,0,1-2.175,7.147,14.913,14.913,0,0,0-1.7,5.568A2.5,2.5,0,0,1,0,41.226Z" transform="translate(239.7 506.115)" fill="#f1b434"/>
      <path id="Path_19" data-name="Path 19" d="M3.467,41.79A2.5,2.5,0,0,1,.99,39.6a19.789,19.789,0,0,1,.329-7.463,14.912,14.912,0,0,0,.263-5.816,14.932,14.932,0,0,0-1.7-5.573A19.816,19.816,0,0,1-2.3,13.6a19.811,19.811,0,0,1,.329-7.467A14.933,14.933,0,0,0-1.7.313,2.5,2.5,0,0,1,.464-2.48,2.5,2.5,0,0,1,3.257-.313a19.81,19.81,0,0,1-.329,7.467,14.933,14.933,0,0,0-.263,5.82,14.938,14.938,0,0,0,1.7,5.572A19.809,19.809,0,0,1,6.543,25.7a19.788,19.788,0,0,1-.329,7.463,14.912,14.912,0,0,0-.263,5.816A2.5,2.5,0,0,1,3.783,41.77,2.525,2.525,0,0,1,3.467,41.79Z" transform="translate(304.442 505.692)" fill="#f1b434"/>
      <path id="Path_20" data-name="Path 20" d="M12.38,39.887a2.5,2.5,0,0,1-2.325-1.58A19.782,19.782,0,0,1,8.518,31a14.906,14.906,0,0,0-1.191-5.7,14.933,14.933,0,0,0-3.035-4.975A19.81,19.81,0,0,1,.407,13.938,19.8,19.8,0,0,1-1.132,6.623,14.932,14.932,0,0,0-2.324.92,2.5,2.5,0,0,1-.92-2.324,2.5,2.5,0,0,1,2.324-.92,19.809,19.809,0,0,1,3.863,6.393a14.928,14.928,0,0,0,1.193,5.7A14.933,14.933,0,0,0,8.09,17.072a19.81,19.81,0,0,1,3.885,6.385,19.782,19.782,0,0,1,1.537,7.31,14.906,14.906,0,0,0,1.191,5.7,2.5,2.5,0,0,1-2.324,3.421Z" transform="translate(361.636 490.768)" fill="#f1b434"/>
      <path id="Path_21" data-name="Path 21" d="M21.29,35.634A2.5,2.5,0,0,1,19.266,34.6a19.79,19.79,0,0,1-3.308-6.7,14.914,14.914,0,0,0-2.572-5.223,14.927,14.927,0,0,0-4.176-4.064A19.81,19.81,0,0,1,3.86,13.4,19.8,19.8,0,0,1,.551,6.7,14.931,14.931,0,0,0-2.023,1.469a2.5,2.5,0,0,1,.553-3.492,2.5,2.5,0,0,1,3.492.553,19.808,19.808,0,0,1,3.309,6.7A14.925,14.925,0,0,0,7.905,10.46a14.934,14.934,0,0,0,4.176,4.063,19.8,19.8,0,0,1,5.351,5.219,19.789,19.789,0,0,1,3.307,6.7,14.914,14.914,0,0,0,2.572,5.223,2.5,2.5,0,0,1-2.02,3.97Z" transform="translate(412.569 462.284)" fill="#f1b434"/>
      <path id="Path_22" data-name="Path 22" d="M28.858,29.3a2.49,2.49,0,0,1-1.592-.574A19.787,19.787,0,0,1,22.4,23.058a14.91,14.91,0,0,0-3.789-4.42,14.934,14.934,0,0,0-5.055-2.9,19.809,19.809,0,0,1-6.482-3.724A19.8,19.8,0,0,1,2.2,6.35,14.935,14.935,0,0,0-1.594,1.926a2.5,2.5,0,0,1-.333-3.52,2.5,2.5,0,0,1,3.52-.333A19.812,19.812,0,0,1,6.465,3.742a14.929,14.929,0,0,0,3.793,4.423,14.933,14.933,0,0,0,5.056,2.9,19.812,19.812,0,0,1,6.48,3.723,19.787,19.787,0,0,1,4.869,5.666,14.911,14.911,0,0,0,3.789,4.42A2.5,2.5,0,0,1,28.858,29.3Z" transform="translate(454.819 422.028)" fill="#f1b434"/>
      <path id="Path_23" data-name="Path 23" d="M34.615,21.278a2.49,2.49,0,0,1-1.063-.238,19.782,19.782,0,0,1-6.125-4.277,14.906,14.906,0,0,0-4.769-3.339,14.933,14.933,0,0,0-5.618-1.549,19.8,19.8,0,0,1-7.2-1.995A19.8,19.8,0,0,1,3.709,5.6a14.927,14.927,0,0,0-4.774-3.34,2.5,2.5,0,0,1-1.2-3.326,2.5,2.5,0,0,1,3.326-1.2A19.8,19.8,0,0,1,7.193,2.016a14.926,14.926,0,0,0,4.774,3.34A14.929,14.929,0,0,0,17.584,6.9a19.81,19.81,0,0,1,7.2,1.995,19.782,19.782,0,0,1,6.125,4.277,14.905,14.905,0,0,0,4.769,3.339,2.5,2.5,0,0,1-1.066,4.763Z" transform="translate(485.729 372.531)" fill="#f1b434"/>
      <path id="Path_24" data-name="Path 24" d="M38.2,12.081a2.512,2.512,0,0,1-.471-.045,19.8,19.8,0,0,1-7-2.619,14.923,14.923,0,0,0-5.451-2.048,14.937,14.937,0,0,0-5.826-.1,19.811,19.811,0,0,1-7.472-.141,19.816,19.816,0,0,1-7-2.62A14.941,14.941,0,0,0-.469,2.456,2.5,2.5,0,0,1-2.456-.469,2.5,2.5,0,0,1,.469-2.456a19.819,19.819,0,0,1,7,2.621,14.938,14.938,0,0,0,5.454,2.049,14.933,14.933,0,0,0,5.825.1,19.815,19.815,0,0,1,7.473.141,19.8,19.8,0,0,1,7,2.619,14.923,14.923,0,0,0,5.451,2.048,2.5,2.5,0,0,1-.466,4.956Z" transform="translate(503.359 316.9)" fill="#f1b434"/>
      <path id="Path_25" data-name="Path 25" d="M11.7,5.672A19.394,19.394,0,0,1,5.949,4.82,14.938,14.938,0,0,0,.157,4.192,2.5,2.5,0,0,1-2.5,1.854,2.5,2.5,0,0,1-.157-.8,19.815,19.815,0,0,1,7.274,0a14.932,14.932,0,0,0,5.793.628A14.929,14.929,0,0,0,18.737-.722a19.812,19.812,0,0,1,7.272-1.722,19.79,19.79,0,0,1,7.428.8,14.913,14.913,0,0,0,5.788.628,2.5,2.5,0,0,1,.314,4.99,19.79,19.79,0,0,1-7.428-.8,14.913,14.913,0,0,0-5.788-.628,14.934,14.934,0,0,0-5.667,1.349,19.805,19.805,0,0,1-7.274,1.722C12.778,5.655,12.22,5.672,11.7,5.672Z" transform="translate(506.601 256.935)" fill="#f1b434"/>
      <path id="Path_26" data-name="Path 26" d="M0,12.508A2.5,2.5,0,0,1-2.378,10.78,2.5,2.5,0,0,1-.772,7.629a19.808,19.808,0,0,1,7.4-1.076,14.935,14.935,0,0,0,5.767-.832A14.937,14.937,0,0,0,17.545,3,19.807,19.807,0,0,1,24.162-.472a19.789,19.789,0,0,1,7.393-1.075,14.913,14.913,0,0,0,5.762-.831,2.5,2.5,0,0,1,3.15,1.605,2.5,2.5,0,0,1-1.605,3.15,19.789,19.789,0,0,1-7.393,1.075,14.913,14.913,0,0,0-5.762.831A14.93,14.93,0,0,0,20.552,7a19.815,19.815,0,0,1-6.616,3.477,19.813,19.813,0,0,1-7.4,1.076,14.931,14.931,0,0,0-5.766.832A2.5,2.5,0,0,1,0,12.508Z" transform="translate(495.251 191.382)" fill="#f1b434"/>
      <path id="Path_27" data-name="Path 27" d="M0,21.667a2.5,2.5,0,0,1-2.113-1.16,2.5,2.5,0,0,1,.771-3.451,19.8,19.8,0,0,1,6.9-2.883,14.929,14.929,0,0,0,5.378-2.24A14.939,14.939,0,0,0,15.252,8.02,19.809,19.809,0,0,1,20.8,3.007,19.781,19.781,0,0,1,27.69.127a14.909,14.909,0,0,0,5.374-2.237,2.5,2.5,0,0,1,3.45.771,2.5,2.5,0,0,1-.771,3.45A19.785,19.785,0,0,1,28.851,4.99a14.906,14.906,0,0,0-5.375,2.238,14.933,14.933,0,0,0-4.318,3.913,19.816,19.816,0,0,1-5.544,5.013,19.806,19.806,0,0,1-6.9,2.881A14.926,14.926,0,0,0,1.34,21.277,2.489,2.489,0,0,1,0,21.667Z" transform="translate(470.021 129.602)" fill="#f1b434"/>
      <path id="Path_28" data-name="Path 28" d="M0,29.619a2.491,2.491,0,0,1-1.711-.678,2.5,2.5,0,0,1-.111-3.534A19.811,19.811,0,0,1,4.141,20.9a14.934,14.934,0,0,0,4.653-3.507A14.932,14.932,0,0,0,12,12.531,19.807,19.807,0,0,1,16.125,6.3a19.787,19.787,0,0,1,5.961-4.5,14.913,14.913,0,0,0,4.649-3.5,2.5,2.5,0,0,1,3.534-.111,2.5,2.5,0,0,1,.111,3.534,19.79,19.79,0,0,1-5.96,4.5,14.911,14.911,0,0,0-4.65,3.5,14.931,14.931,0,0,0-3.209,4.864,19.809,19.809,0,0,1-4.122,6.233,19.812,19.812,0,0,1-5.964,4.506A14.934,14.934,0,0,0,1.822,28.83,2.493,2.493,0,0,1,0,29.619Z" transform="translate(432.497 76.954)" fill="#f1b434"/>
      <path id="Path_29" data-name="Path 29" d="M0,35.87a2.489,2.489,0,0,1-1.2-.31,2.5,2.5,0,0,1-.987-3.4,19.808,19.808,0,0,1,4.656-5.849A14.938,14.938,0,0,0,6.1,21.763,14.939,14.939,0,0,0,8,16.254,19.812,19.812,0,0,1,10.44,9.19a19.8,19.8,0,0,1,4.653-5.844A14.918,14.918,0,0,0,18.725-1.2a2.5,2.5,0,0,1,3.4-.986,2.5,2.5,0,0,1,.986,3.4,19.8,19.8,0,0,1-4.653,5.844A14.919,14.919,0,0,0,14.821,11.6a14.934,14.934,0,0,0-1.9,5.509,19.818,19.818,0,0,1-2.443,7.064,19.816,19.816,0,0,1-4.655,5.847,14.931,14.931,0,0,0-3.635,4.555A2.5,2.5,0,0,1,0,35.87Z" transform="translate(385.037 36.747)" fill="#f1b434"/>
      <path id="Path_30" data-name="Path 30" d="M0,40.023a2.5,2.5,0,0,1-.624-.079,2.5,2.5,0,0,1-1.8-3.043A19.814,19.814,0,0,1,.633,30.08a14.93,14.93,0,0,0,2.387-5.316,14.936,14.936,0,0,0,.468-5.808,19.812,19.812,0,0,1,.61-7.45A19.79,19.79,0,0,1,7.153,4.689,14.907,14.907,0,0,0,9.539-.622a2.5,2.5,0,0,1,3.043-1.8,2.5,2.5,0,0,1,1.8,3.043A19.783,19.783,0,0,1,11.328,7.44a14.913,14.913,0,0,0-2.386,5.31,14.935,14.935,0,0,0-.468,5.808,19.813,19.813,0,0,1-.61,7.449A19.806,19.806,0,0,1,4.809,32.83a14.936,14.936,0,0,0-2.388,5.315A2.5,2.5,0,0,1,0,40.023Z" transform="translate(330.623 11.504)" fill="#f1b434"/>
      <rect id="Rectangle_3" data-name="Rectangle 3" width="548.798" height="547.797" transform="translate(0 0)" fill="none"/>
    </g>
    <text id="The_Water_s_Fine" data-name="The 
Water’ s
Fine" transform="matrix(0.996, -0.087, 0.087, 0.996, 827.983, 900.219)" fill="#fff" font-size="84" font-family="Chantal-Bold, Chantal" font-weight="700"><tspan x="-91.68" y="0">The</tspan><tspan y="0" font-size="110"> </tspan><tspan font-size="110"><tspan x="-216.615" y="98">Water’</tspan><tspan y="98" font-size="2"> </tspan><tspan y="98">s</tspan><tspan x="-112.915" y="196">Fine</tspan></tspan></text>
  </g>
</svg>
